<?xml version="1.0" encoding="utf-8"?>
<!-- Generator: Adobe Illustrator 19.0.0, SVG Export Plug-In . SVG Version: 6.00 Build 0)  -->
<svg version="1.1" id="Layer_1" xmlns="http://www.w3.org/2000/svg" xmlns:xlink="http://www.w3.org/1999/xlink" x="0px" y="0px"
	 viewBox="-273 371 64 52" style="enable-background:new -273 371 64 52;" xml:space="preserve">
<style type="text/css">
	.st0{fill:#9A9A9A;}
</style>
<g id="group-13svg">
	<path id="path-1" class="st0" d="M-211.5,422h-60c-0.8,0-1.5-0.7-1.5-1.5c0-0.8,0.7-1.5,1.5-1.5h60c0.8,0,1.5,0.7,1.5,1.5
		C-210,421.4-210.7,422-211.5,422z"/>
	<path id="path-2" class="st0" d="M-210.1,406.5c0,5.2-4.3,9.5-9.5,9.5h-43c-5.2,0-9.5-4.3-9.5-9.5v-26c0-5.2,4.3-9.5,9.5-9.5h43
		c5.2,0,9.5,4.3,9.5,9.5V406.5z M-213.1,380.5c0-3.6-2.9-6.5-6.5-6.5h-43c-3.6,0-6.5,2.9-6.5,6.5v26c0,3.6,2.9,6.5,6.5,6.5h43
		c3.6,0,6.5-2.9,6.5-6.5V380.5z"/>
	<path id="path-3" class="st0" d="M-220.8,416h-40.1c-5.9,0-10.6-4.7-10.6-10.5c0-0.8,0.7-1.5,1.5-1.5h58.4c0.8,0,1.5,0.7,1.5,1.5
		C-210.2,411.3-214.9,416-220.8,416z M-268.4,407c0.7,3.4,3.8,6,7.5,6h40.1c3.7,0,6.8-2.6,7.5-6H-268.4z"/>
	<path id="path-4" class="st0" d="M-237.6,401.3c-0.4,0-0.8-0.1-1.1-0.4c-0.6-0.6-0.6-1.5,0-2.1l8.3-8.3c0.6-0.6,1.5-0.6,2.1,0
		c0.6,0.6,0.6,1.5,0,2.1l-8.3,8.3C-236.8,401.2-237.2,401.3-237.6,401.3z"/>
	<path id="path-5" class="st0" d="M-250.4,402.7c-0.4,0-0.8-0.1-1.1-0.4c-0.6-0.6-0.6-1.5,0-2.1l17.9-17.9c0.6-0.6,1.5-0.6,2.1,0
		c0.6,0.6,0.6,1.5,0,2.1l-17.9,17.9C-249.6,402.6-250,402.7-250.4,402.7z"/>
</g>
</svg>
