<?xml version="1.0" encoding="utf-8"?>
<!-- Generator: Adobe Illustrator 19.0.0, SVG Export Plug-In . SVG Version: 6.00 Build 0)  -->
<svg version="1.1" id="Layer_1" xmlns="http://www.w3.org/2000/svg" xmlns:xlink="http://www.w3.org/1999/xlink" x="0px" y="0px"
	 viewBox="-273 375 64 43" style="enable-background:new -273 375 64 43;" xml:space="preserve">
<style type="text/css">
	.st0{fill:#9A9A9A;}
</style>
<g id="group-12svg">
	<path id="path-1" class="st0" d="M-230.6,418.3h-6c-2.1,0-2.7-2-2.7-3.9v-0.1c0-0.8,0.7-1.5,1.5-1.5s1.5,0.7,1.5,1.5v0.1
		c0,0.4-0.3,0.8-0.2,0.9h5.9c0.3,0,1.3-0.6,1.3-0.9v-6.9c-1-0.1-0.9-0.2-1.3-0.2h-6.1c-0.1,0-0.4,0.3-0.4,0.7l0,0
		c0.3,0.8-0.1,1.6-0.8,2c-0.8,0.3-1.6-0.1-2-0.8l-0.1-0.4c-0.1-0.2-0.1-0.4-0.1-0.6c0-1.9,1.4-4,3.5-4h6.1c2.2,0,4.3,1.3,4.3,3.1v7
		C-226.3,416.4-228.7,418.3-230.6,418.3z"/>
	<path id="path-2" class="st0" d="M-245.6,418.3h-7c-2.1,0-2.7-2-2.7-3.9v-7c0-1.9,0.8-3.1,2.7-3.1h7.4c2.1,0,3.6,2.1,3.6,4
		c0,0.1,0,0.2,0,0.2l-0.1,0.4c-0.1,0.8-0.9,1.4-1.7,1.3c-0.8-0.1-1.4-0.9-1.3-1.7l0-0.2c0-0.5-0.4-0.9-0.6-0.9h-7.4
		c-0.1,0,0.1,0,0,0c0,0,0.2,0.1,0.2,0.1v7c0,0.4-0.3,0.8-0.2,0.9h6.9c0.3,0,1.3-0.6,1.3-0.9v-0.1c0-0.8,0.7-1.5,1.5-1.5
		c0.8,0,1.5,0.7,1.5,1.5v0.1C-241.3,416.4-243.7,418.3-245.6,418.3z"/>
	<path id="path-3" class="st0" d="M-211.5,405.3c-0.8,0-1.5-0.7-1.5-1.5c0-6.2-5.1-11.3-11.3-11.3c-6.2,0-11.3,5.1-11.3,11.3
		c0,0.8-0.7,1.5-1.5,1.5s-1.5-0.7-1.5-1.5c0-7.9,6.4-14.3,14.3-14.3c7.9,0,14.3,6.4,14.3,14.3C-210,404.6-210.7,405.3-211.5,405.3z"
		/>
	<path id="path-4" class="st0" d="M-224.2,392.1c-4.4,0-8.1-6-8.1-9.8c0-4.3,4.2-7.3,8-7.3c3.8,0,8,3,8,7.3
		C-216.2,386.1-219.9,392.1-224.2,392.1z M-224.3,378c-2.3,0-5,1.9-5,4.3c0,2.6,2.8,6.8,5.1,6.8c2.2,0,5-4.2,5-6.8
		C-219.2,379.9-221.9,378-224.3,378z"/>
	<path id="path-5" class="st0" d="M-258.7,392.1c-4.4,0-8.1-6-8.1-9.8c0-4.3,4.2-7.3,8-7.3c3.8,0,8,3,8,7.3
		C-250.7,386.1-254.4,392.1-258.7,392.1z M-258.7,378c-2.3,0-5,1.9-5,4.3c0,2.6,2.8,6.8,5.1,6.8c2.2,0,5-4.2,5-6.8
		C-253.7,379.9-256.4,378-258.7,378z"/>
	<path id="path-6" class="st0" d="M-246,405.3c-0.8,0-1.5-0.7-1.5-1.5c0-6.2-5.1-11.3-11.3-11.3c-6.2,0-11.3,5.1-11.3,11.3
		c0,0.8-0.7,1.5-1.5,1.5s-1.5-0.7-1.5-1.5c0-7.9,6.4-14.3,14.3-14.3c7.9,0,14.3,6.4,14.3,14.3C-244.5,404.6-245.2,405.3-246,405.3z"
		/>
	<path id="path-7" class="st0" d="M-230.6,418.3h-6c-2.1,0-2.7-2-2.7-3.9v-0.1c0-0.8,0.7-1.5,1.5-1.5s1.5,0.7,1.5,1.5v0.1
		c0,0.4-0.3,0.8-0.2,0.9h5.9c0.3,0,1.3-0.6,1.3-0.9v-6.9c-1-0.1-0.9-0.2-1.3-0.2h-6.1c-0.1,0-0.4,0.3-0.4,0.7l0,0
		c0.3,0.8-0.1,1.6-0.8,2c-0.8,0.3-1.6-0.1-2-0.8l-0.1-0.4c-0.1-0.2-0.1-0.4-0.1-0.6c0-1.9,1.4-4,3.5-4h6.1c2.2,0,4.3,1.3,4.3,3.1v7
		C-226.3,416.4-228.7,418.3-230.6,418.3z"/>
	<path id="path-8" class="st0" d="M-245.6,418.3h-7c-2.1,0-2.7-2-2.7-3.9v-7c0-1.9,0.8-3.1,2.7-3.1h7.4c2.1,0,3.6,2.1,3.6,4
		c0,0.1,0,0.2,0,0.2l-0.1,0.4c-0.1,0.8-0.9,1.4-1.7,1.3c-0.8-0.1-1.4-0.9-1.3-1.7l0-0.2c0-0.5-0.4-0.9-0.6-0.9h-7.4
		c-0.1,0,0.1,0,0,0c0,0,0.2,0.1,0.2,0.1v7c0,0.4-0.3,0.8-0.2,0.9h6.9c0.3,0,1.3-0.6,1.3-0.9v-0.1c0-0.8,0.7-1.5,1.5-1.5
		c0.8,0,1.5,0.7,1.5,1.5v0.1C-241.3,416.4-243.7,418.3-245.6,418.3z"/>
	<path id="path-9" class="st0" d="M-237.8,411.3h-8c-0.8,0-1.5-0.7-1.5-1.5c0-0.8,0.7-1.5,1.5-1.5h8c0.8,0,1.5,0.7,1.5,1.5
		C-236.3,410.6-236.9,411.3-237.8,411.3z"/>
</g>
</svg>
