<?xml version="1.0" encoding="utf-8"?>
<!-- Generator: Adobe Illustrator 19.0.0, SVG Export Plug-In . SVG Version: 6.00 Build 0)  -->
<svg version="1.1" id="Layer_1" xmlns="http://www.w3.org/2000/svg" xmlns:xlink="http://www.w3.org/1999/xlink" x="0px" y="0px"
	 viewBox="-274 376 63 41" style="enable-background:new -274 376 63 41;" xml:space="preserve">
<style type="text/css">
	.st0{fill:#9A9A9A;}
</style>
<g id="group-8svg">
	<path id="path-1" class="st0" d="M-211,407.5c0,5.2-4.3,9.5-9.5,9.5h-44c-5.2,0-9.5-4.3-9.5-9.5v-22c0-5.2,4.3-9.5,9.5-9.5h44
		c5.2,0,9.5,4.3,9.5,9.5V407.5z M-214,385.5c0-3.6-2.9-6.5-6.5-6.5h-44c-3.6,0-6.5,2.9-6.5,6.5v22c0,3.6,2.9,6.5,6.5,6.5h44
		c3.6,0,6.5-2.9,6.5-6.5V385.5z"/>
	<path id="path-2" class="st0" d="M-222.4,395h-40.7c-0.7,0-1.3-0.5-1.5-1.1c-0.2-0.7,0.2-1.4,0.8-1.7l10.9-5.6
		c0.7-0.4,1.6-0.1,2,0.7c0.4,0.7,0.1,1.6-0.7,2l-5.3,2.7h34.4c0.8,0,1.5,0.7,1.5,1.5C-220.9,394.3-221.6,395-222.4,395z"/>
	<path id="path-3" class="st0" d="M-233.3,405.5c-0.6,0-1.1-0.3-1.3-0.8c-0.4-0.7-0.1-1.6,0.7-2l5.5-2.7h-35c-0.8,0-1.5-0.7-1.5-1.5
		s0.7-1.5,1.5-1.5h41.4c0.7,0,1.3,0.5,1.5,1.2c0.2,0.7-0.2,1.4-0.8,1.7l-11.3,5.6C-232.8,405.5-233,405.5-233.3,405.5z"/>
</g>
</svg>
